<?xml version="1.0" standalone="no"?>
<!DOCTYPE svg PUBLIC "-//W3C//DTD SVG 20010904//EN"
 "http://www.w3.org/TR/2001/REC-SVG-20010904/DTD/svg10.dtd">
<svg version="1.0" xmlns="http://www.w3.org/2000/svg"
 width="1024.000000pt" height="1024.000000pt" viewBox="0 0 1024.000000 1024.000000"
 preserveAspectRatio="xMidYMid meet">

<g transform="translate(0.000000,1024.000000) scale(0.100000,-0.100000)"
fill="#000000" stroke="none">
<path d="M4905 8634 c-77 -36 -168 -79 -203 -95 -34 -16 -65 -29 -68 -29 -4 0
-45 -17 -119 -50 -11 -5 -45 -19 -75 -30 -30 -12 -68 -28 -85 -35 -115 -51
-406 -157 -565 -205 -58 -18 -125 -38 -150 -46 -152 -46 -308 -86 -505 -129
-44 -10 -107 -23 -140 -31 -83 -18 -250 -49 -370 -69 -55 -9 -129 -23 -165
-30 -36 -8 -90 -17 -121 -20 -132 -14 -210 -52 -247 -118 -16 -30 -17 -84 -16
-732 0 -447 5 -747 12 -830 7 -71 16 -184 22 -250 38 -459 133 -951 265 -1375
97 -310 297 -753 480 -1060 119 -200 320 -493 411 -600 12 -14 55 -65 97 -115
96 -115 424 -440 542 -537 187 -154 401 -304 650 -455 71 -43 260 -147 375
-206 126 -65 138 -69 187 -65 53 5 214 77 358 162 33 20 67 39 75 42 25 12
252 145 295 174 244 162 400 278 555 414 342 299 624 631 895 1056 68 107 90
143 98 160 4 8 23 42 42 75 91 155 243 475 325 685 11 30 25 64 30 75 9 20 57
167 98 300 46 146 98 361 132 540 6 33 17 94 25 135 82 428 117 1019 112 1910
-2 444 -3 456 -24 495 -11 22 -34 50 -50 61 -32 24 -113 49 -188 59 -27 4 -81
12 -120 20 -38 7 -113 21 -165 30 -153 27 -302 55 -345 65 -22 5 -87 19 -145
31 -181 39 -571 137 -621 158 -13 5 -85 28 -159 52 -74 23 -139 45 -145 49 -5
4 -26 11 -45 15 -19 4 -41 11 -50 16 -8 5 -58 25 -110 45 -106 40 -253 100
-355 144 -72 32 -147 65 -190 85 -27 13 -72 33 -100 46 -27 12 -79 35 -113 50
-49 22 -78 29 -125 28 -55 0 -79 -8 -202 -65z m535 -1294 c218 -76 452 -262
592 -470 65 -96 132 -234 147 -300 12 -54 13 -53 -129 -116 -221 -98 -554
-203 -727 -230 l-43 -7 0 566 c0 311 2 572 6 580 4 12 13 12 62 2 31 -7 73
-18 92 -25z m-500 -546 l0 -576 -32 7 c-18 3 -60 13 -93 22 -33 8 -76 19 -95
23 -88 19 -358 106 -425 135 -16 8 -75 32 -130 55 -55 23 -108 49 -118 59 -17
16 -16 20 3 76 73 212 241 441 426 580 124 94 343 194 427 195 l37 0 0 -576z
m-843 -540 c32 -14 87 -37 123 -50 36 -14 81 -32 100 -39 19 -8 67 -24 105
-35 39 -12 79 -26 90 -30 35 -15 158 -50 173 -50 8 0 35 -7 61 -15 25 -8 75
-22 111 -31 36 -9 90 -24 120 -33 92 -27 193 -20 370 28 85 23 182 48 215 55
113 26 376 120 523 187 35 16 74 32 88 35 l24 6 0 -773 c0 -801 -2 -843 -43
-969 -31 -97 -134 -294 -201 -385 -75 -102 -246 -271 -360 -357 -142 -105
-439 -278 -478 -278 -37 0 -247 117 -408 228 -345 238 -556 507 -660 842 l-24
75 -2 790 c-2 726 0 825 11 825 3 0 30 -12 62 -26z m-267 -704 c0 -307 -3
-410 -12 -410 -6 0 -42 31 -80 68 l-68 69 0 283 0 284 53 49 c47 44 78 65 100
66 4 1 7 -183 7 -409z m2623 379 c26 -17 58 -44 72 -61 l25 -30 0 -274 c0
-189 -4 -282 -12 -297 -12 -23 -77 -87 -120 -118 l-28 -20 0 415 c0 229 4 416
8 416 5 0 29 -14 55 -31z m192 -1784 c121 -42 247 -85 280 -96 128 -42 175
-62 175 -74 0 -7 -33 -41 -72 -77 -504 -446 -1152 -874 -1663 -1098 -27 -12
-63 -27 -80 -35 -170 -76 -239 -63 -585 113 -186 95 -302 157 -365 197 -27 17
-99 63 -160 100 -207 130 -354 232 -593 414 -62 47 -136 104 -165 125 -62 47
-196 162 -255 219 -33 33 -40 44 -30 53 7 6 90 38 183 70 429 145 576 194 585
194 6 0 18 -17 26 -37 90 -208 147 -308 260 -448 163 -203 360 -358 679 -534
150 -82 228 -121 245 -121 35 0 357 175 505 274 193 130 396 325 497 477 53
80 158 277 158 297 0 5 9 30 20 55 l20 45 58 -19 c31 -10 156 -52 277 -94z"/>
<path d="M5865 5913 c-90 -37 -212 -81 -285 -105 -217 -69 -252 -81 -272 -98
-22 -17 -23 -26 -26 -175 -2 -98 0 -161 7 -168 7 -7 24 -6 53 1 24 6 75 18
113 27 180 43 346 105 430 161 73 49 77 58 82 208 7 173 -4 188 -102 149z"/>
<path d="M4273 5924 c-10 -4 -13 -45 -13 -155 l0 -149 33 -33 c39 -37 157
-101 207 -112 19 -4 41 -11 50 -16 18 -9 112 -39 160 -50 169 -40 206 -46 214
-39 15 14 20 249 7 298 -11 38 -18 45 -66 67 -29 14 -58 25 -63 25 -23 0 -338
108 -429 147 -39 16 -84 24 -100 17z"/>
<path d="M4449 5109 l-30 -32 3 -353 c3 -350 3 -354 25 -376 35 -34 88 -30
124 10 l29 32 0 343 c0 309 -2 344 -18 363 -42 52 -92 57 -133 13z"/>
<path d="M5657 5116 l-26 -24 -1 -360 c0 -360 0 -361 22 -381 33 -32 80 -31
116 2 l22 20 0 364 0 363 -32 20 c-43 26 -70 25 -101 -4z"/>
<path d="M4795 4955 l-25 -24 0 -439 0 -439 23 -21 c32 -30 87 -29 115 1 21
22 21 27 22 464 l0 441 -29 21 c-39 28 -76 27 -106 -4z"/>
<path d="M5309 4950 l-30 -29 3 -435 c3 -434 3 -435 25 -455 38 -36 119 -20
138 27 4 9 9 200 12 425 6 435 4 451 -43 482 -36 23 -72 19 -105 -15z"/>
</g>
</svg>
